<?xml version="1.0"?>
<svg xmlns="http://www.w3.org/2000/svg" data-name="Layer 1" id="Layer_1" viewBox="0 0 64 64"><title/><path d="M20,38V26a1,1,0,0,0-1-1H18V17.28a9,9,0,0,0-4-7.49,2.57,2.57,0,0,0-4,2.14V25H9a1,1,0,0,0-1,1V38a1,1,0,0,0-1,1V61a1,1,0,0,0,1,1H20a1,1,0,0,0,1-1V39A1,1,0,0,0,20,38ZM9,40H19V56H9Zm3-28.07a.57.57,0,0,1,.88-.47A7,7,0,0,1,16,17.28V25H12ZM10,27h8V38H10ZM9,60V58H19v2Z"/><path d="M56,2H24a1,1,0,0,0-1,1V7s0,0,0,0,0,0,0,0l3.74,39.28A4,4,0,0,0,29,49.59V59a3,3,0,0,0,3,3H48a3,3,0,0,0,3-3V49.59a4,4,0,0,0,2.25-3.22L57,7.09s0,0,0,0,0,0,0,0V3A1,1,0,0,0,56,2ZM25,4H55V6H25ZM37.18,60a3,3,0,0,1,5.63,0ZM49,59a1,1,0,0,1-1,1H44.9a5,5,0,0,0-9.8,0H32a1,1,0,0,1-1-1V50H49Zm2.26-12.81a2,2,0,0,1-2,1.81H30.73a2,2,0,0,1-2-1.81L25.1,8H54.9Z"/><path d="M33,44H47a1,1,0,0,0,1-1V37a1,1,0,0,0-1-1H33a1,1,0,0,0-1,1v6A1,1,0,0,0,33,44Zm1-6H46v4H34Z"/><path d="M35,20H45a1,1,0,0,0,0-2H35a1,1,0,0,0,0,2Z"/><path d="M12,43a1,1,0,0,0-1,1v8a1,1,0,0,0,2,0V44A1,1,0,0,0,12,43Z"/><path d="M33,24H47a1,1,0,0,0,0-2H33a1,1,0,0,0,0,2Z"/></svg>
