<?xml version="1.0" encoding="UTF-8" standalone="no"?>
<!-- Created with Inkscape (http://www.inkscape.org/) -->

<svg
   version="1.1"
   id="svg1908"
   xml:space="preserve"
   width="682.66669"
   height="682.66669"
   viewBox="0 0 682.66669 682.66669"
   xmlns="http://www.w3.org/2000/svg"
   xmlns:svg="http://www.w3.org/2000/svg"><defs
     id="defs1912"><clipPath
       clipPathUnits="userSpaceOnUse"
       id="clipPath1922"><path
         d="M 0,512 H 512 V 0 H 0 Z"
         id="path1920" /></clipPath></defs><g
     id="g1914"
     transform="matrix(1.3333333,0,0,-1.3333333,0,682.66667)"><g
       id="g1916"><g
         id="g1918"
         clip-path="url(#clipPath1922)"><g
           id="g1924"
           transform="translate(465.6606,352.0122)"><path
             d="m 0,0 v 0 c -9.021,-9.021 -23.646,-9.021 -32.666,0 l -65.333,65.333 c -9.021,9.021 -9.021,23.646 0,32.666 9.02,9.021 23.646,9.021 32.666,0 L 0,32.667 C 9.021,23.646 9.021,9.021 0,0 Z"
             style="fill:none;stroke:#000000;stroke-width:20;stroke-linecap:round;stroke-linejoin:round;stroke-miterlimit:10;stroke-dasharray:none;stroke-opacity:1"
             id="path1926" /></g><g
           id="g1928"
           transform="translate(404.4116,445.9282)"><path
             d="m 0,0 28.583,28.583 c 15.786,15.786 41.38,15.786 57.166,0 15.786,-15.786 15.786,-41.38 0,-57.166 L 57.166,-57.166"
             style="fill:none;stroke:#000000;stroke-width:20;stroke-linecap:round;stroke-linejoin:round;stroke-miterlimit:10;stroke-dasharray:none;stroke-opacity:1"
             id="path1930" /></g><g
           id="g1932"
           transform="translate(417.0254,344.21)"><path
             d="M 0,0 11.886,11.886"
             style="fill:none;stroke:#000000;stroke-width:20;stroke-linecap:round;stroke-linejoin:round;stroke-miterlimit:10;stroke-dasharray:none;stroke-opacity:1"
             id="path1934" /></g><g
           id="g1936"
           transform="translate(371.7451,413.2617)"><path
             d="m 0,0 -154.954,-154.953 c -6.765,-6.766 -6.765,-17.734 0,-24.5 l -16.333,-16.333 c -9.02,-9.021 -9.02,-23.646 0,-32.667 9.021,-9.02 23.646,-9.02 32.667,0 l 16.333,16.333 c 6.766,-6.765 17.734,-6.765 24.5,0 l 86.499,86.499"
             style="fill:none;stroke:#000000;stroke-width:20;stroke-linecap:round;stroke-linejoin:round;stroke-miterlimit:10;stroke-dasharray:none;stroke-opacity:1"
             id="path1938" /></g><g
           id="g1940"
           transform="translate(398.7412,315.9258)"><path
             d="m 0,0 c 0,-5.523 -4.478,-10 -10,-10 -5.523,0 -10,4.477 -10,10 0,5.522 4.477,10 10,10 C -4.478,10 0,5.522 0,0"
             style="fill:#000000;fill-opacity:1;fill-rule:nonzero;stroke:none"
             id="path1942" /></g><g
           id="g1944"
           transform="translate(353.4761,280.6592)"><path
             d="M 0,0 -114.324,0.008"
             style="fill:none;stroke:#000000;stroke-width:20;stroke-linecap:round;stroke-linejoin:round;stroke-miterlimit:10;stroke-dasharray:none;stroke-opacity:1"
             id="path1946" /></g><path
           d="m 264.084,25.649 h -92.395 v 92.394 h 92.395 z"
           style="fill:none;stroke:#000000;stroke-width:20;stroke-linecap:round;stroke-linejoin:round;stroke-miterlimit:10;stroke-dasharray:none;stroke-opacity:1"
           id="path1948" /><path
           d="M 102.395,25.649 H 10 v 92.394 h 92.395 z"
           style="fill:none;stroke:#000000;stroke-width:20;stroke-linecap:round;stroke-linejoin:round;stroke-miterlimit:10;stroke-dasharray:none;stroke-opacity:1"
           id="path1950" /><path
           d="M 425.774,25.649 H 333.38 v 92.394 h 92.394 z"
           style="fill:none;stroke:#000000;stroke-width:20;stroke-linecap:round;stroke-linejoin:round;stroke-miterlimit:10;stroke-dasharray:none;stroke-opacity:1"
           id="path1952" /></g></g></g></svg>
