<svg id="Layer_2" enable-background="new 0 0 32 32" height="512" viewBox="0 0 32 32" width="512" xmlns="http://www.w3.org/2000/svg"><g><path d="m3.2 27.06667h25.6c1.76458 0 3.2-1.43542 3.2-3.2v-15.73334c0-1.76458-1.43542-3.2-3.2-3.2h-25.6c-1.76458 0-3.2 1.43542-3.2 3.2v15.73333c0 1.76459 1.43542 3.20001 3.2 3.20001zm25.6-2.13334h-25.6c-.58854 0-1.06667-.47812-1.06667-1.06667v-11.6h27.73333v11.6c.00001.58855-.47812 1.06667-1.06666 1.06667zm-25.6-17.86666h25.6c.58854 0 1.06667.47813 1.06667 1.06667v2h-27.73334v-2c0-.58855.47813-1.06667 1.06667-1.06667z"/><path d="m9.23958 20.71771h-3.95729c-.58958 0-1.06667.47708-1.06667 1.06667 0 .58958.47708 1.06667 1.06667 1.06667h3.95729c.58958 0 1.06667-.47708 1.06667-1.06667s-.47708-1.06667-1.06667-1.06667z"/></g></svg>