<svg version="1.1" id="Layer_1" xmlns="http://www.w3.org/2000/svg" xmlns:xlink="http://www.w3.org/1999/xlink" x="0px" y="0px" viewBox="0 0 512 512" style="enable-background:new 0 0 512 512;" xml:space="preserve" width="300" height="300" xmlns:svgjs="http://svgjs.dev/svgjs"><g width="100%" height="100%" transform="matrix(1,0,0,1,0,0)"><g>
	<g>
		
			<polyline style="stroke-linecap: round; stroke-linejoin: round; stroke-miterlimit: 10;" points="&#10;&#9;&#9;&#9;368.084,108.359 368.084,212.97 465.799,212.97 &#9;&#9;" fill="none" fill-opacity="1" stroke="#0bc270" stroke-opacity="1" data-original-stroke-color="#33ccccff" stroke-width="22" data-original-stroke-width="22"/>
		
			<polyline style="stroke-linecap: round; stroke-linejoin: round; stroke-miterlimit: 10;" points="&#10;&#9;&#9;&#9;493.033,325.404 445.209,325.404 445.209,279.842 493.033,279.842 &#9;&#9;" fill="none" fill-opacity="1" stroke="#000000" stroke-opacity="1" data-original-stroke-color="#000000ff" stroke-width="22" data-original-stroke-width="22"/>
	</g>
	<g>
		
			<polyline style="stroke-linecap: round; stroke-linejoin: round; stroke-miterlimit: 10;" points="&#10;&#9;&#9;&#9;11,318.199 11,191.583 312.708,191.583 &#9;&#9;" fill="none" fill-opacity="1" stroke="#000000" stroke-opacity="1" data-original-stroke-color="#000000ff" stroke-width="22" data-original-stroke-width="22"/>
		
			<line style="stroke-linecap: round; stroke-linejoin: round; stroke-miterlimit: 10;" x1="165.448" y1="377.286" x2="317.788" y2="377.286" fill="none" fill-opacity="1" stroke="#000000" stroke-opacity="1" data-original-stroke-color="#000000ff" stroke-width="22" data-original-stroke-width="22"/>
		<path style="stroke-linecap: round; stroke-linejoin: round; stroke-miterlimit: 10;" d="&#10;&#9;&#9;&#9;M312.708,318.199H11v25.81c0,18.379,14.886,33.278,33.248,33.278h25.514" fill="none" fill-opacity="1" stroke="#000000" stroke-opacity="1" data-original-stroke-color="#000000ff" stroke-width="22" data-original-stroke-width="22"/>
		<path style="stroke-linecap: round; stroke-linejoin: round; stroke-miterlimit: 10;" d="&#10;&#9;&#9;&#9;M413.922,377.286h53.83c18.362,0,33.248-14.899,33.248-33.278v-80.864c0-11.726-4.716-22.958-13.086-31.164l-19.032-18.66&#10;&#9;&#9;&#9;l-22.04-80.792c-5.176-18.973-22.397-32.134-42.047-32.134h-84.898v276.892" fill="none" fill-opacity="1" stroke="#000000" stroke-opacity="1" data-original-stroke-color="#000000ff" stroke-width="22" data-original-stroke-width="22"/>
		
			<ellipse style="stroke-linecap: round; stroke-linejoin: round; stroke-miterlimit: 10;" cx="117.06" cy="364.903" rx="46.424" ry="46.704" fill="none" fill-opacity="1" stroke="#000000" stroke-opacity="1" data-original-stroke-color="#000000ff" stroke-width="22" data-original-stroke-width="22"/>
		
			<line style="stroke-linecap: round; stroke-linejoin: round; stroke-miterlimit: 10;" x1="117.06" y1="364.903" x2="117.06" y2="364.903" fill="none" fill-opacity="1" stroke="#000000" stroke-opacity="1" data-original-stroke-color="#000000ff" stroke-width="22" data-original-stroke-width="22"/>
		
			<ellipse style="stroke-linecap: round; stroke-linejoin: round; stroke-miterlimit: 10;" cx="366.32" cy="364.903" rx="46.424" ry="46.704" fill="none" fill-opacity="1" stroke="#000000" stroke-opacity="1" data-original-stroke-color="#000000ff" stroke-width="22" data-original-stroke-width="22"/>
		
			<line style="stroke-linecap: round; stroke-linejoin: round; stroke-miterlimit: 10;" x1="366.32" y1="364.903" x2="366.32" y2="364.903" fill="none" fill-opacity="1" stroke="#000000" stroke-opacity="1" data-original-stroke-color="#000000ff" stroke-width="22" data-original-stroke-width="22"/>
		
			<line style="stroke-linecap: round; stroke-linejoin: round; stroke-miterlimit: 10;" x1="108.03" y1="254.891" x2="222.866" y2="254.891" fill="none" fill-opacity="1" stroke="#0bc270" stroke-opacity="1" data-original-stroke-color="#33ccccff" stroke-width="22" data-original-stroke-width="22"/>
	</g>
</g><g>
</g><g>
</g><g>
</g><g>
</g><g>
</g><g>
</g><g>
</g><g>
</g><g>
</g><g>
</g><g>
</g><g>
</g><g>
</g><g>
</g><g>
</g></g></svg>